<svg width="640" height="360" viewBox="0 0 640 360" fill="none" xmlns="http://www.w3.org/2000/svg">
  <g fill="#243FA8">
    <path d="M76 64h24v70h65V64h24v162h-24v-70h-65v70H76V64Z"/>
    <path d="M239 64h24v91c0 18 3.6 30.8 10.9 38.6 7.2 7.8 18 11.7 32.3 11.7 14.1 0 24.7-3.9 31.9-11.7 7.2-7.8 10.8-20.6 10.8-38.6V64h24v95.4c0 23.5-5.9 41-17.6 52.4-11.7 11.4-28.1 17.2-49.1 17.2-21.3 0-37.9-5.7-49.8-17.2-11.8-11.4-17.7-28.9-17.7-52.4V64Z"/>
    <path d="M428 64h37.2l49.5 102.4L564 64h37.4v162h-24V97.8l-50.4 102.4h-24.8L451.8 98v128h-23.8V64Z"/>
    <path d="M612 145.1c0-24 7.8-43.8 23.6-59.5 15.7-15.8 35.5-23.6 59.3-23.6 11 0 21.6 1.7 31.7 5.1 10 3.3 19.4 8.5 28.1 15.6l-15.5 18.3c-13.5-10.9-28.5-16.4-45-16.4-17.1 0-31.4 5.8-42.8 17.5-11.4 11.6-17.1 26-17.1 43 0 17.8 5.8 32.4 17.5 43.7 11.7 11.2 26.8 16.8 45.3 16.8 13.6 0 25.2-3 34.8-9.2v-27.4h-40.4v-22.1h63.1v61.2c-7.4 6.4-16.2 11.6-26.6 15.4-10.4 3.7-21.3 5.6-32.8 5.6-24.8 0-45.3-7.7-61.3-23.1-16-15.5-24-35.1-24-58.9Z" transform="translate(-177 0) scale(0.82 1)"/>
  </g>
  <g stroke="#243FA8" stroke-width="8" stroke-linecap="round" stroke-linejoin="round">
    <path d="M115 226 171 221 193 244 171 268 135 239 115 226Z"/>
    <path d="M171 221 208 212"/>
    <path d="M171 268 187 302"/>
    <path d="M208 212 187 302"/>
  </g>
  <g fill="#fff" stroke="#243FA8" stroke-width="8">
    <circle cx="109" cy="220" r="16"/>
    <circle cx="209" cy="211" r="16"/>
    <circle cx="170" cy="268" r="16"/>
    <circle cx="194" cy="302" r="16"/>
  </g>
  <g fill="#243FA8">
    <path d="M369 306 333 288l-11 27h-18l14-34-55-15 12-95 52-60 55 60 12 95-41 28 2 21-22-20Zm-28-35 30 9-4-42 17-14-38-89-38 89 17 14-7 48 23-15Z"/>
    <path d="M383 167 425 194l-1 94-29 22-5-28 12-15 1-100 22-8Z"/>
    <path d="M323 315h118v6H323zm-23 16h165v6H300zm34 16h98v6h-98z"/>
    <path d="M476 183c28.7 0 52 21.9 52 48.8 0 26.8-23.3 48.6-52 48.6-8 0-15.7-1.7-22.7-4.8l-22.6 18.6 4.8-29c-7.3-8.6-11.5-19.4-11.5-31.4 0-26.9 23.3-48.8 52-48.8Z"/>
  </g>
  <g fill="#fff">
    <circle cx="458" cy="235" r="8"/>
    <circle cx="483" cy="235" r="8"/>
    <circle cx="508" cy="235" r="8"/>
  </g>
</svg>
